PathFileType	4	(X/Y/Z)	C:\Users\Basilio\Documents\Thesis Gigler\squatting_fais\c3dfiles\058\SLS_front_pre2\markers_experimental.trc
DataRate	CameraRate	NumFrames	NumMarkers	Units	OrigDataRate	OrigDataStartFrame	OrigNumFrames
200.000000	200.000000	4	61	mm	200.000000	939	1252
Frame#	Time	FHD			LBHD			RBHD			C7			T10			CLAV			LSHO			LUUPA			LMUPA			LDUPA			LLEP			LMEP			LUL			LRFIN			RSHO			RUPA1			RMUPA			RDUPA			RLEP			RMEP			RRAD			RUL			RUFIN			LASI			RASI			USACR			LSACR			RSACR			LTHI1			LTHI2			LTHI3			LTHI4			LLFC			LMFC			LTIB1			LTIB2			LTIB3			LTIB4			LLMAL			LMMAL			LHEE			LMT1			LMT2			LMT5			RTHI			RTHI2			RTHI3			RTHI4			RLFC			RMFC			RTIB2			RTIB3			RTIB4			RLMAL			RMMAL			RHEE			RMT1			RMT2			RMT5			RTIB1			LRAD			
		X1	Y1	Z1	X2	Y2	Z2	X3	Y3	Z3	X4	Y4	Z4	X5	Y5	Z5	X6	Y6	Z6	X7	Y7	Z7	X8	Y8	Z8	X9	Y9	Z9	X10	Y10	Z10	X11	Y11	Z11	X12	Y12	Z12	X13	Y13	Z13	X14	Y14	Z14	X15	Y15	Z15	X16	Y16	Z16	X17	Y17	Z17	X18	Y18	Z18	X19	Y19	Z19	X20	Y20	Z20	X21	Y21	Z21	X22	Y22	Z22	X23	Y23	Z23	X24	Y24	Z24	X25	Y25	Z25	X26	Y26	Z26	X27	Y27	Z27	X28	Y28	Z28	X29	Y29	Z29	X30	Y30	Z30	X31	Y31	Z31	X32	Y32	Z32	X33	Y33	Z33	X34	Y34	Z34	X35	Y35	Z35	X36	Y36	Z36	X37	Y37	Z37	X38	Y38	Z38	X39	Y39	Z39	X40	Y40	Z40	X41	Y41	Z41	X42	Y42	Z42	X43	Y43	Z43	X44	Y44	Z44	X45	Y45	Z45	X46	Y46	Z46	X47	Y47	Z47	X48	Y48	Z48	X49	Y49	Z49	X50	Y50	Z50	X51	Y51	Z51	X52	Y52	Z52	X53	Y53	Z53	X54	Y54	Z54	X55	Y55	Z55	X56	Y56	Z56	X57	Y57	Z57	X58	Y58	Z58	X59	Y59	Z59	X60	Y60	Z60	X61	Y61	Z61	

940	4.695	-282.2760620117188	1815.37353515625	-613.2801513671876	-433.2679443359376	1755.347900390625	-692.2216796875001	-265.7904968261719	1823.460327148438	-754.8182373046876	-442.4440307617189	1600.782104492188	-700.3690185546876	-461.3523254394532	1297.836181640625	-685.9925537109376	-281.0323181152344	1558.107421875	-688.6695556640626	-294.7377319335938	1606.457885742188	-844.4862060546877	-153.0309295654297	1523.403076171875	-968.2946777343752	-123.3899993896485	1559.781616210938	-948.938415527344	-83.21643829345705	1521.807373046875	-971.6529541015627	-4.914763450622559	1521.705810546875	-964.7039184570315	-0.07099083811044694	1464.136108398438	-932.910339355469	265.5160217285157	1553.283935546875	-927.5589599609377	360.2621765136719	1549.002563476563	-846.3635253906252	-305.7807617187501	1606.66162109375	-532.4146728515626	-151.7944488525391	1512.883422851563	-421.905975341797	-127.2055206298828	1551.026245117188	-443.7121582031251	-82.52008056640626	1519.695190429688	-421.3546752929689	-14.58752536773682	1509.734619140625	-426.6675720214845	-6.852353572845461	1453.093383789063	-478.9297790527345	252.6593017578126	1541.254272460938	-514.6353149414064	255.1433563232422	1553.45703125	-433.2525024414064	348.5851135253907	1564.468017578125	-501.5193481445314	-308.7097167968751	1103.997436523438	-845.4130859375002	-279.4612426757813	1074.954711914063	-610.1744384765626	-480.9561462402345	1176.920654296875	-683.7985839843751	-494.4870910644532	1148.747680664063	-713.0609130859376	-481.0020141601564	1142.093994140625	-657.4574584960939	-287.1894836425782	852.3100585937502	-933.8881835937502	-234.0212707519532	785.982849121094	-929.9879150390627	-192.5386810302735	798.1187133789065	-902.3691406250002	-244.1501464843751	727.4932250976564	-923.779724121094	-209.1528015136719	633.6463623046876	-917.6602783203127	-184.2152099609375	625.6865234375001	-791.128845214844	-109.4472274780274	525.1341552734376	-887.409606933594	-145.84619140625	475.325408935547	-945.914733886719	-105.3783569335938	479.3689270019532	-923.4544677734377	-75.61746978759767	403.3654174804689	-904.0117187500002	-66.28504943847658	198.9411010742188	-929.641296386719	-39.30377960205079	214.1662139892579	-841.0729980468752	-112.0579910278321	147.0829620361328	-874.6795043945315	107.9600677490235	187.3033905029297	-874.7432250976565	108.8477554321289	194.3938598632813	-920.934753417969	62.01550674438478	163.0445404052735	-971.4217529296877	-383.5175476074219	863.0106201171877	-549.7619018554689	-344.3809509277344	809.1851806640627	-551.0938720703126	-311.1348266601563	810.4947509765627	-552.9002685546876	-367.7100524902344	732.0041503906251	-574.2607421875001	-354.8354492187501	553.8144531250001	-607.2271118164064	-318.0939025878907	552.4398803710939	-739.1248168945314	-342.1093750000001	274.3491210937501	-648.5876464843751	-304.7051086425782	270.3169250488282	-678.7431640625001	-313.8717041015626	228.8769226074219	-718.6718139648439	-374.3771057128907	116.1272659301758	-688.7644042968751	-341.6988830566407	145.4306182861328	-772.7784423828127	-438.3929748535157	102.1175842285157	-754.5223388671876	-229.8187408447266	61.00596618652345	-768.587097167969	-221.9269714355469	59.01118469238283	-716.0880126953126	-271.2446289062501	26.44115066528321	-664.7465820312501	-299.3186645507813	358.1958007812501	-705.0241088867189	258.3498535156251	1525.131591796875	-850.9674072265627	
941	4.7	-282.3486633300782	1815.567016601563	-613.2249145507814	-433.2463989257814	1755.337890625	-692.2185058593751	-265.7552490234376	1823.546142578125	-754.8154296875001	-442.3655395507814	1600.837158203125	-700.3415527343751	-461.1693420410157	1297.786010742188	-685.8986206054689	-281.0133666992188	1558.185180664063	-688.6609497070314	-294.6136474609376	1606.513061523438	-844.469421386719	-152.9318389892578	1523.376098632813	-968.2504882812502	-123.3248291015625	1559.811279296875	-948.9433593750002	-83.10335540771486	1521.814453125	-971.6153564453127	-4.689350605010987	1521.782348632813	-964.741394042969	0.292184203863144	1464.186645507813	-932.9125976562502	265.6391601562501	1553.448608398438	-927.5896606445315	360.6054992675782	1549.129516601563	-846.4053344726565	-305.7139282226563	1606.746948242188	-532.4033203125001	-151.7154235839844	1512.903564453125	-421.7925415039064	-127.1896667480469	1551.028686523438	-443.6730957031251	-82.3480911254883	1519.890380859375	-421.3179931640626	-14.53841972351075	1509.802734375	-426.6051025390626	-6.76228713989258	1453.182983398438	-478.8396606445314	252.6280975341797	1541.363891601563	-514.6527709960939	255.1358947753907	1553.596069335938	-433.2615356445314	348.6572875976563	1564.610473632813	-501.6196289062501	-308.5618591308594	1103.922973632813	-845.339294433594	-278.9651489257813	1075.023803710938	-610.2164306640626	-480.7993164062501	1176.96142578125	-683.7984619140626	-494.2420043945314	1148.831909179688	-713.0211181640626	-480.7453613281251	1142.147583007813	-657.4144897460939	-286.9645080566407	852.2463378906252	-933.7624511718752	-233.8579864501954	785.9002685546877	-929.8772583007815	-192.305648803711	798.0279541015627	-902.2141113281252	-244.0505371093751	727.5310058593751	-923.6264648437502	-209.1085357666016	633.5698242187501	-917.5096435546877	-184.0701446533203	625.5897216796876	-791.0191650390627	-109.3794326782227	525.1106567382814	-887.301696777344	-145.755859375	475.2655029296876	-945.747741699219	-105.3185806274414	479.3245239257814	-923.289001464844	-75.5542678833008	403.3011474609376	-903.8356933593752	-66.0492630004883	198.8575134277344	-929.437927246094	-39.15332031250001	214.2015991210938	-840.7752685546877	-111.9572372436524	147.0661010742188	-874.3787841796877	108.1574020385742	187.3674468994141	-874.558288574219	108.5191421508789	194.6971893310547	-920.872985839844	62.16999435424806	163.0427551269532	-971.1893310546877	-383.3279113769532	863.0571289062502	-549.6145019531251	-343.8810424804688	809.636657714844	-550.9329223632814	-310.9728698730469	810.577087402344	-552.7872314453126	-367.6128540039063	732.0380249023439	-574.0928955078126	-354.8466186523438	553.8226318359376	-607.0880737304689	-318.0301818847657	552.3555908203126	-738.9320678710939	-342.1390380859376	274.3347778320313	-648.4824829101564	-304.7435913085938	270.3441467285157	-678.5608520507814	-313.9269714355469	228.8592681884766	-718.5477294921876	-374.3510437011719	116.1748199462891	-688.6876220703126	-341.6858215332032	145.4313201904297	-772.6955566406252	-438.4923400878907	102.1589813232422	-754.4805908203126	-229.771713256836	61.15043258666994	-768.479187011719	-221.9629821777344	58.98377990722658	-716.0123291015626	-271.2814331054688	26.40372848510743	-664.7102661132814	-299.2583618164063	358.3061828613282	-704.8489379882814	258.4329833984376	1525.492431640625	-850.9009399414065	
942	4.705	-282.3494567871094	1815.640014648438	-613.2777709960939	-433.224822998047	1755.334228515625	-692.1963500976564	-265.8430480957032	1823.610717773438	-754.8262329101564	-442.300750732422	1600.825439453125	-700.3233642578126	-460.9888610839845	1297.769653320313	-685.9136352539064	-280.9384765625001	1558.218139648438	-688.5995483398439	-294.5867614746094	1606.533203125	-844.426940917969	-152.8064422607422	1523.329833984375	-968.2252197265627	-123.280876159668	1559.803466796875	-948.9641723632815	-82.9888153076172	1521.801513671875	-971.5889282226565	-4.637388229370118	1521.84814453125	-964.677673339844	0.3956377804279329	1464.253295898438	-932.8479614257815	265.7788391113282	1553.53564453125	-927.519958496094	360.7429809570313	1549.241821289063	-846.406677246094	-305.5892944335938	1606.849853515625	-532.4027099609376	-151.6661224365235	1512.900756835938	-421.8060913085939	-127.1251754760742	1551.110595703125	-443.6358337402345	-82.20508575439455	1520.04345703125	-421.2431030273439	-14.36423110961914	1509.965698242188	-426.5142822265626	-6.634457588195803	1453.264404296875	-478.7439575195314	252.7965698242188	1541.5166015625	-514.7507934570314	255.2913665771485	1553.543212890625	-433.4020385742189	348.7366943359376	1564.65771484375	-501.7501220703126	-308.3645935058594	1103.912353515625	-845.3242187500002	-278.8100280761719	1075.020263671875	-610.2406616210939	-480.494842529297	1176.95849609375	-683.8120117187501	-493.9575805664064	1148.923095703125	-713.0520019531251	-480.538299560547	1142.103637695313	-657.4091796875001	-286.8742980957032	852.1809692382815	-933.6423339843752	-233.6390533447266	785.8920898437502	-929.6800537109377	-192.2294921875001	798.0005493164065	-901.9634399414065	-243.8771667480469	727.5687866210939	-923.4922485351565	-208.9879150390626	633.4625244140626	-917.3294677734377	-184.0762176513672	625.5531005859376	-790.8174438476565	-109.2859039306641	525.0935668945314	-887.196228027344	-145.6084442138672	475.1118774414064	-945.648376464844	-104.8356475830078	479.2494201660157	-923.3217773437502	-75.47034454345705	403.2888183593751	-903.6982421875002	-65.7178421020508	198.8831787109376	-929.0899047851565	-39.03551101684571	214.2620849609376	-840.436462402344	-111.8581008911133	147.0585021972657	-874.0501098632815	108.2967681884766	187.4334716796875	-874.2556762695315	108.9630966186524	194.1632843017579	-920.483581542969	62.40369415283205	163.0070037841797	-970.9503173828127	-383.2066345214844	863.0822753906252	-549.4718627929689	-343.8444519042969	809.7504882812502	-550.7716064453126	-310.8702392578126	810.5869750976565	-552.6589965820314	-367.4856567382813	732.1284790039064	-573.9636840820314	-354.8409729003907	553.9180908203126	-607.0271606445314	-318.1344909667969	552.4138183593751	-738.8552856445314	-342.2224426269532	274.3160400390626	-648.4421386718751	-304.7320251464844	270.4004516601563	-678.4540405273439	-314.0091857910157	228.8741912841797	-718.4186401367189	-374.3990173339844	116.1873779296875	-688.6135864257814	-341.8195800781251	145.4206695556641	-772.6373291015627	-438.519744873047	102.1821441650391	-754.4385986328126	-229.8504486083985	61.08469772338869	-768.4895019531252	-221.956771850586	59.05661010742189	-716.0073242187501	-271.2690429687501	26.37996673583985	-664.7086791992189	-299.2856750488282	358.3809814453126	-704.6867065429689	258.4878540039063	1525.710205078125	-850.856140136719	
943	4.71	-282.3125305175782	1815.781005859375	-613.2609863281251	-432.9854125976564	1755.311767578125	-692.2427368164064	-265.8664550781251	1823.675903320313	-754.9095458984376	-442.1990051269532	1600.910278320313	-700.2806396484376	-460.7959899902345	1297.863403320313	-685.8923950195314	-280.8371276855469	1558.291748046875	-688.5287475585939	-294.4441528320313	1606.578979492188	-844.4314575195315	-152.7317962646485	1523.333862304688	-968.1570434570315	-123.1508560180664	1559.748168945313	-948.9499511718752	-82.92199707031251	1521.838500976563	-971.5498046875002	-4.512054443359376	1521.863525390625	-964.6247558593752	0.5219891667366029	1464.368530273438	-932.747497558594	265.8449401855469	1553.676025390625	-927.4869384765627	360.7604064941407	1549.369506835938	-846.4057617187502	-305.4935913085938	1606.859008789063	-532.3327636718751	-151.2537689208985	1513.18798828125	-421.7925415039064	-126.8922882080078	1551.229125976563	-443.6097717285157	-82.05639648437501	1520.064575195313	-421.2565307617189	-14.21892070770264	1510.032348632813	-426.4884338378907	-6.389776706695558	1453.365234375	-478.7264099121095	252.8282928466797	1541.632934570313	-514.8437500000001	255.4425354003907	1553.718627929688	-433.5122985839845	348.7721557617188	1564.71484375	-501.9130859375001	-308.1491699218751	1103.926879882813	-845.3039550781252	-278.5877685546876	1074.961669921875	-610.1643066406251	-480.192840576172	1177.012939453125	-683.7962646484376	-493.7023925781251	1149.016357421875	-713.0565185546876	-480.2955017089845	1142.119262695313	-657.4041137695314	-286.5931091308594	852.1507568359377	-933.5234375000002	-233.5355377197266	785.870056152344	-929.532653808594	-192.161605834961	797.9170532226565	-901.7861938476565	-243.6958618164063	727.4558105468751	-923.389343261719	-208.8490142822266	633.3873291015626	-917.325622558594	-183.9838256835938	625.4618530273439	-790.691345214844	-109.2234420776367	525.0103759765626	-887.0527343750002	-145.335922241211	474.977752685547	-945.5399169921877	-104.8107376098633	479.2934570312501	-923.1228027343752	-75.36055755615236	403.1207885742189	-903.4692382812502	-65.44055938720705	198.7950744628907	-928.8145751953127	-38.92111206054688	214.1890563964844	-840.2575683593752	-111.7565612792969	147.1112976074219	-873.7637939453127	108.6077041625977	187.59423828125	-873.9649658203127	109.2577133178711	194.278060913086	-920.2183227539065	62.73132705688478	162.9108276367188	-970.6551513671877	-382.6713256835938	863.2880859375002	-549.3860473632814	-343.6964416503907	809.7628173828127	-550.6701049804689	-310.7867736816407	810.6519775390627	-552.5172729492189	-367.4492797851563	732.1896362304689	-573.8325195312501	-354.8500061035157	553.9491577148439	-606.9470825195314	-318.0384521484376	552.4522094726564	-738.7290039062501	-342.3169860839844	274.4846191406251	-648.3713378906251	-304.7491149902344	270.4452819824219	-678.3577880859376	-314.0085144042969	228.9848327636719	-718.3149414062501	-374.4334106445313	116.247428894043	-688.6090698242189	-341.8976745605469	145.4642639160157	-772.634704589844	-438.5389099121095	102.226547241211	-754.3687744140626	-229.7840270996094	61.11306381225587	-768.430603027344	-221.9406280517579	59.01409149169923	-716.0055541992189	-271.2398071289063	26.39849472045899	-664.6637573242189	-299.2182617187501	358.4064025878907	-704.5465087890626	258.5798339843751	1525.887817382813	-850.846618652344	
